<svg xmlns="http://www.w3.org/2000/svg" viewBox="0 0 1600 1000" role="img" aria-labelledby="title desc">
  <title id="title">Pakhala Bhata Companion Image</title>
  <desc id="desc">Stylized wooden board with chopped purple onions, used as a companion image when Pakhala Bhata is sent.</desc>
  <defs>
    <linearGradient id="wall" x1="0" x2="0" y1="0" y2="1">
      <stop offset="0%" stop-color="#ccb48a"/>
      <stop offset="55%" stop-color="#b9986d"/>
      <stop offset="100%" stop-color="#9b7a57"/>
    </linearGradient>
    <linearGradient id="table" x1="0" x2="1" y1="0" y2="0">
      <stop offset="0%" stop-color="#4c2618"/>
      <stop offset="100%" stop-color="#6d3e28"/>
    </linearGradient>
    <linearGradient id="board" x1="0" x2="1" y1="0" y2="1">
      <stop offset="0%" stop-color="#f3e5b7"/>
      <stop offset="100%" stop-color="#e1c98f"/>
    </linearGradient>
    <filter id="shadow" x="-20%" y="-20%" width="140%" height="140%">
      <feDropShadow dx="0" dy="16" stdDeviation="20" flood-color="#3b220f" flood-opacity="0.25"/>
    </filter>
  </defs>

  <rect width="1600" height="520" fill="url(#wall)"/>
  <g opacity="0.18" stroke="#8c6b48" stroke-width="6">
    <path d="M70 40h1460"/>
    <path d="M60 120h1480"/>
    <path d="M80 210h1440"/>
    <path d="M70 300h1460"/>
    <path d="M90 390h1420"/>
    <path d="M55 470h1490"/>
  </g>
  <rect y="520" width="1600" height="480" fill="url(#table)"/>
  <g opacity="0.14" stroke="#8f5b3f" stroke-width="8">
    <path d="M0 610h1600"/>
    <path d="M0 710h1600"/>
    <path d="M0 820h1600"/>
    <path d="M0 930h1600"/>
  </g>

  <g filter="url(#shadow)" transform="translate(110 535) rotate(-5 690 145)">
    <rect x="0" y="0" width="1320" height="290" rx="14" fill="url(#board)"/>
    <rect x="30" y="24" width="1260" height="242" rx="10" fill="#f7ebc7" opacity="0.55"/>
  </g>

  <g transform="translate(250 550)">
    <ellipse cx="420" cy="180" rx="355" ry="100" fill="#8c4f72" opacity="0.12"/>
    <g fill="#c27ad4">
      <path d="M140 180l36-24 26 30-40 28z"/>
      <path d="M208 145l42-26 24 34-44 24z"/>
      <path d="M286 162l38-20 30 28-36 30z"/>
      <path d="M352 116l46-26 26 35-40 28z"/>
      <path d="M430 132l40-24 32 33-36 30z"/>
      <path d="M504 160l48-28 28 38-44 26z"/>
      <path d="M582 122l38-22 28 32-36 26z"/>
      <path d="M650 150l44-26 30 32-40 30z"/>
      <path d="M730 180l38-24 24 28-34 28z"/>
      <path d="M198 208l44-24 28 36-40 30z"/>
      <path d="M274 226l42-20 30 32-40 30z"/>
      <path d="M354 202l48-26 30 36-46 30z"/>
      <path d="M446 218l42-26 28 32-38 32z"/>
      <path d="M528 230l44-24 30 32-40 32z"/>
      <path d="M612 210l38-22 28 28-36 28z"/>
      <path d="M682 236l42-24 30 28-38 30z"/>
      <path d="M108 228l38-22 28 28-34 30z"/>
      <path d="M164 258l42-24 28 32-40 28z"/>
      <path d="M242 278l48-28 30 34-44 34z"/>
      <path d="M328 270l42-24 28 32-38 30z"/>
      <path d="M410 286l44-24 30 32-42 32z"/>
      <path d="M496 290l48-26 28 32-44 34z"/>
      <path d="M590 282l42-24 26 30-38 32z"/>
      <path d="M670 300l44-24 28 30-40 32z"/>
      <path d="M752 270l40-22 26 26-36 28z"/>
    </g>
    <g fill="#f4edf8" opacity="0.88">
      <path d="M148 186l18-14 12 14-18 16z"/>
      <path d="M220 150l18-12 12 13-16 16z"/>
      <path d="M298 166l16-10 14 12-15 16z"/>
      <path d="M362 124l20-12 12 15-18 16z"/>
      <path d="M440 138l18-11 14 15-16 17z"/>
      <path d="M516 168l20-12 14 18-18 16z"/>
      <path d="M592 130l18-10 12 14-16 15z"/>
      <path d="M660 156l18-12 14 13-17 16z"/>
      <path d="M214 214l18-12 12 15-16 18z"/>
      <path d="M282 234l18-10 14 13-16 18z"/>
      <path d="M366 208l20-12 12 16-18 18z"/>
      <path d="M454 226l18-12 12 15-16 18z"/>
      <path d="M534 238l20-12 14 14-18 18z"/>
      <path d="M618 218l18-10 12 12-16 17z"/>
      <path d="M692 244l18-11 13 12-16 17z"/>
      <path d="M176 264l18-12 12 15-17 16z"/>
      <path d="M254 286l20-12 12 16-18 18z"/>
      <path d="M338 276l18-10 12 15-16 18z"/>
      <path d="M420 292l18-12 14 14-16 18z"/>
      <path d="M510 296l20-12 12 15-18 18z"/>
      <path d="M600 288l18-10 12 13-16 18z"/>
      <path d="M680 306l18-11 12 13-16 18z"/>
    </g>
  </g>
</svg>
